<svg width="267" height="44" viewBox="0 0 267 44" fill="none" xmlns="http://www.w3.org/2000/svg">
<path d="M79.1879 10.764C82.9319 10.764 85.7999 11.436 87.7919 12.78C89.7839 14.1 90.7799 16.164 90.7799 18.972C90.7799 20.724 90.3719 22.152 89.5559 23.256C88.7639 24.336 87.6119 25.188 86.0999 25.812C86.6039 26.436 87.1319 27.156 87.6839 27.972C88.2359 28.764 88.7759 29.604 89.3039 30.492C89.8559 31.356 90.3839 32.268 90.8879 33.228C91.3919 34.164 91.8599 35.088 92.2919 36H85.9919C85.5359 35.184 85.0679 34.356 84.5879 33.516C84.1319 32.676 83.6519 31.86 83.1479 31.068C82.6679 30.276 82.1879 29.532 81.7079 28.836C81.2279 28.116 80.7479 27.468 80.2679 26.892H77.4959V36H71.8799V11.412C73.1039 11.172 74.3639 11.004 75.6599 10.908C76.9799 10.812 78.1559 10.764 79.1879 10.764ZM79.5119 15.552C79.1039 15.552 78.7319 15.564 78.3959 15.588C78.0839 15.612 77.7839 15.636 77.4959 15.66V22.428H79.0799C81.1919 22.428 82.7039 22.164 83.6159 21.636C84.5279 21.108 84.9839 20.208 84.9839 18.936C84.9839 17.712 84.5159 16.848 83.5799 16.344C82.6679 15.816 81.3119 15.552 79.5119 15.552Z" fill="#322153"/>
<path d="M93.7175 26.676C93.7175 24.996 93.9695 23.532 94.4735 22.284C95.0015 21.012 95.6855 19.956 96.5255 19.116C97.3655 18.276 98.3255 17.64 99.4055 17.208C100.51 16.776 101.638 16.56 102.79 16.56C105.478 16.56 107.602 17.388 109.162 19.044C110.722 20.676 111.502 23.088 111.502 26.28C111.502 26.592 111.49 26.94 111.466 27.324C111.442 27.684 111.418 28.008 111.394 28.296H99.2255C99.3455 29.4 99.8615 30.276 100.774 30.924C101.686 31.572 102.91 31.896 104.446 31.896C105.43 31.896 106.39 31.812 107.326 31.644C108.286 31.452 109.066 31.224 109.666 30.96L110.386 35.316C110.098 35.46 109.714 35.604 109.234 35.748C108.754 35.892 108.214 36.012 107.614 36.108C107.038 36.228 106.414 36.324 105.742 36.396C105.07 36.468 104.398 36.504 103.726 36.504C102.022 36.504 100.534 36.252 99.2615 35.748C98.0135 35.244 96.9695 34.56 96.1295 33.696C95.3135 32.808 94.7015 31.764 94.2935 30.564C93.9095 29.364 93.7175 28.068 93.7175 26.676ZM106.318 24.624C106.294 24.168 106.21 23.724 106.066 23.292C105.946 22.86 105.742 22.476 105.454 22.14C105.19 21.804 104.842 21.528 104.41 21.312C104.002 21.096 103.486 20.988 102.862 20.988C102.262 20.988 101.746 21.096 101.314 21.312C100.882 21.504 100.522 21.768 100.234 22.104C99.9455 22.44 99.7175 22.836 99.5495 23.292C99.4055 23.724 99.2975 24.168 99.2255 24.624H106.318Z" fill="#322153"/>
<path d="M114.741 26.532C114.741 25.164 114.957 23.88 115.389 22.68C115.845 21.456 116.493 20.4 117.333 19.512C118.173 18.6 119.193 17.88 120.393 17.352C121.593 16.824 122.961 16.56 124.497 16.56C125.505 16.56 126.429 16.656 127.269 16.848C128.109 17.016 128.925 17.268 129.717 17.604L128.601 21.888C128.097 21.696 127.545 21.528 126.945 21.384C126.345 21.24 125.673 21.168 124.929 21.168C123.345 21.168 122.157 21.66 121.365 22.644C120.597 23.628 120.213 24.924 120.213 26.532C120.213 28.236 120.573 29.556 121.293 30.492C122.037 31.428 123.321 31.896 125.145 31.896C125.793 31.896 126.489 31.836 127.233 31.716C127.977 31.596 128.661 31.404 129.285 31.14L130.041 35.532C129.417 35.796 128.637 36.024 127.701 36.216C126.765 36.408 125.733 36.504 124.605 36.504C122.877 36.504 121.389 36.252 120.141 35.748C118.893 35.22 117.861 34.512 117.045 33.624C116.253 32.736 115.665 31.692 115.281 30.492C114.921 29.268 114.741 27.948 114.741 26.532Z" fill="#322153"/>
<path d="M150.734 17.064C149.654 20.712 148.526 24.132 147.35 27.324C146.174 30.516 144.89 33.612 143.498 36.612C142.994 37.692 142.49 38.604 141.986 39.348C141.482 40.116 140.93 40.74 140.33 41.22C139.73 41.724 139.046 42.084 138.278 42.3C137.534 42.54 136.658 42.66 135.65 42.66C134.81 42.66 134.03 42.576 133.31 42.408C132.614 42.264 132.038 42.096 131.582 41.904L132.518 37.62C133.07 37.812 133.562 37.944 133.994 38.016C134.426 38.088 134.882 38.124 135.362 38.124C136.322 38.124 137.054 37.86 137.558 37.332C138.086 36.828 138.53 36.12 138.89 35.208C137.666 32.808 136.442 30.12 135.218 27.144C133.994 24.144 132.842 20.784 131.762 17.064H137.45C137.69 18 137.966 19.02 138.278 20.124C138.614 21.204 138.962 22.308 139.322 23.436C139.682 24.54 140.042 25.62 140.402 26.676C140.786 27.732 141.146 28.692 141.482 29.556C141.794 28.692 142.118 27.732 142.454 26.676C142.79 25.62 143.114 24.54 143.426 23.436C143.762 22.308 144.074 21.204 144.362 20.124C144.674 19.02 144.95 18 145.19 17.064H150.734Z" fill="#322153"/>
<path d="M152.218 26.532C152.218 25.164 152.434 23.88 152.866 22.68C153.322 21.456 153.97 20.4 154.81 19.512C155.65 18.6 156.67 17.88 157.87 17.352C159.07 16.824 160.438 16.56 161.974 16.56C162.982 16.56 163.906 16.656 164.746 16.848C165.586 17.016 166.402 17.268 167.194 17.604L166.078 21.888C165.574 21.696 165.022 21.528 164.422 21.384C163.822 21.24 163.15 21.168 162.406 21.168C160.822 21.168 159.634 21.66 158.842 22.644C158.074 23.628 157.69 24.924 157.69 26.532C157.69 28.236 158.05 29.556 158.77 30.492C159.514 31.428 160.798 31.896 162.622 31.896C163.27 31.896 163.966 31.836 164.71 31.716C165.454 31.596 166.138 31.404 166.762 31.14L167.518 35.532C166.894 35.796 166.114 36.024 165.178 36.216C164.242 36.408 163.21 36.504 162.082 36.504C160.354 36.504 158.866 36.252 157.618 35.748C156.37 35.22 155.338 34.512 154.522 33.624C153.73 32.736 153.142 31.692 152.758 30.492C152.398 29.268 152.218 27.948 152.218 26.532Z" fill="#322153"/>
<path d="M187.915 26.496C187.915 27.984 187.699 29.352 187.267 30.6C186.835 31.824 186.211 32.88 185.395 33.768C184.579 34.632 183.595 35.304 182.443 35.784C181.315 36.264 180.043 36.504 178.627 36.504C177.235 36.504 175.963 36.264 174.811 35.784C173.683 35.304 172.711 34.632 171.895 33.768C171.079 32.88 170.443 31.824 169.987 30.6C169.531 29.352 169.303 27.984 169.303 26.496C169.303 25.008 169.531 23.652 169.987 22.428C170.467 21.204 171.115 20.16 171.931 19.296C172.771 18.432 173.755 17.76 174.883 17.28C176.035 16.8 177.283 16.56 178.627 16.56C179.995 16.56 181.243 16.8 182.371 17.28C183.523 17.76 184.507 18.432 185.323 19.296C186.139 20.16 186.775 21.204 187.231 22.428C187.687 23.652 187.915 25.008 187.915 26.496ZM182.443 26.496C182.443 24.84 182.107 23.544 181.435 22.608C180.787 21.648 179.851 21.168 178.627 21.168C177.403 21.168 176.455 21.648 175.783 22.608C175.111 23.544 174.775 24.84 174.775 26.496C174.775 28.152 175.111 29.472 175.783 30.456C176.455 31.416 177.403 31.896 178.627 31.896C179.851 31.896 180.787 31.416 181.435 30.456C182.107 29.472 182.443 28.152 182.443 26.496Z" fill="#322153"/>
<path d="M199.631 36.36C198.071 36.336 196.799 36.168 195.815 35.856C194.855 35.544 194.087 35.112 193.511 34.56C192.959 33.984 192.575 33.3 192.359 32.508C192.167 31.692 192.071 30.78 192.071 29.772V8.928L197.435 8.064V28.692C197.435 29.172 197.471 29.604 197.543 29.988C197.615 30.372 197.747 30.696 197.939 30.96C198.155 31.224 198.455 31.44 198.839 31.608C199.223 31.776 199.739 31.884 200.387 31.932L199.631 36.36Z" fill="#322153"/>
<path d="M211.021 36.36C209.461 36.336 208.189 36.168 207.205 35.856C206.245 35.544 205.477 35.112 204.901 34.56C204.349 33.984 203.965 33.3 203.749 32.508C203.557 31.692 203.461 30.78 203.461 29.772V8.928L208.825 8.064V28.692C208.825 29.172 208.861 29.604 208.933 29.988C209.005 30.372 209.137 30.696 209.329 30.96C209.545 31.224 209.845 31.44 210.229 31.608C210.613 31.776 211.129 31.884 211.777 31.932L211.021 36.36Z" fill="#322153"/>
<path d="M213.952 26.676C213.952 24.996 214.204 23.532 214.708 22.284C215.236 21.012 215.92 19.956 216.76 19.116C217.6 18.276 218.56 17.64 219.64 17.208C220.744 16.776 221.872 16.56 223.024 16.56C225.712 16.56 227.836 17.388 229.396 19.044C230.956 20.676 231.736 23.088 231.736 26.28C231.736 26.592 231.724 26.94 231.7 27.324C231.676 27.684 231.652 28.008 231.628 28.296H219.46C219.58 29.4 220.096 30.276 221.008 30.924C221.92 31.572 223.144 31.896 224.68 31.896C225.664 31.896 226.624 31.812 227.56 31.644C228.52 31.452 229.3 31.224 229.9 30.96L230.62 35.316C230.332 35.46 229.948 35.604 229.468 35.748C228.988 35.892 228.448 36.012 227.848 36.108C227.272 36.228 226.648 36.324 225.976 36.396C225.304 36.468 224.632 36.504 223.96 36.504C222.256 36.504 220.768 36.252 219.496 35.748C218.248 35.244 217.204 34.56 216.364 33.696C215.548 32.808 214.936 31.764 214.528 30.564C214.144 29.364 213.952 28.068 213.952 26.676ZM226.552 24.624C226.528 24.168 226.444 23.724 226.3 23.292C226.18 22.86 225.976 22.476 225.688 22.14C225.424 21.804 225.076 21.528 224.644 21.312C224.236 21.096 223.72 20.988 223.096 20.988C222.496 20.988 221.98 21.096 221.548 21.312C221.116 21.504 220.756 21.768 220.468 22.104C220.18 22.44 219.952 22.836 219.784 23.292C219.64 23.724 219.532 24.168 219.46 24.624H226.552Z" fill="#322153"/>
<path d="M234.975 26.532C234.975 25.164 235.191 23.88 235.623 22.68C236.079 21.456 236.727 20.4 237.567 19.512C238.407 18.6 239.427 17.88 240.627 17.352C241.827 16.824 243.195 16.56 244.731 16.56C245.739 16.56 246.663 16.656 247.503 16.848C248.343 17.016 249.159 17.268 249.951 17.604L248.835 21.888C248.331 21.696 247.779 21.528 247.179 21.384C246.579 21.24 245.907 21.168 245.163 21.168C243.579 21.168 242.391 21.66 241.599 22.644C240.831 23.628 240.447 24.924 240.447 26.532C240.447 28.236 240.807 29.556 241.527 30.492C242.271 31.428 243.555 31.896 245.379 31.896C246.027 31.896 246.723 31.836 247.467 31.716C248.211 31.596 248.895 31.404 249.519 31.14L250.275 35.532C249.651 35.796 248.871 36.024 247.935 36.216C246.999 36.408 245.967 36.504 244.839 36.504C243.111 36.504 241.623 36.252 240.375 35.748C239.127 35.22 238.095 34.512 237.279 33.624C236.487 32.736 235.899 31.692 235.515 30.492C235.155 29.268 234.975 27.948 234.975 26.532Z" fill="#322153"/>
<path d="M253.695 12.348L259.059 11.484V17.064H265.503V21.528H259.059V28.188C259.059 29.316 259.251 30.216 259.635 30.888C260.043 31.56 260.847 31.896 262.047 31.896C262.623 31.896 263.211 31.848 263.811 31.752C264.435 31.632 264.999 31.476 265.503 31.284L266.259 35.46C265.611 35.724 264.891 35.952 264.099 36.144C263.307 36.336 262.335 36.432 261.183 36.432C259.719 36.432 258.507 36.24 257.547 35.856C256.587 35.448 255.819 34.896 255.243 34.2C254.667 33.48 254.259 32.616 254.019 31.608C253.803 30.6 253.695 29.484 253.695 28.26V12.348Z" fill="#322153"/>
<path d="M14.642 1.84962L10.0671 10.5861C9.77168 11.1501 9.96621 11.8554 10.5046 12.1725L17.6681 16.3922C18.214 16.7137 18.9079 16.516 19.2183 15.9504L27.9745 0.000644684H17.6401C16.3892 0.000644684 15.2386 0.710174 14.642 1.84962V1.84962Z" fill="#29A361"/>
<path d="M27.9743 0L19.2184 15.95C18.9074 16.5154 18.214 16.7136 17.6683 16.3923L15.7986 15.2913C16.2544 15.3674 16.7287 15.1503 16.9701 14.7099L25.047 0H27.9743Z" fill="#248F55"/>
<path d="M37.5549 8.45922L34.3995 1.94901C33.8206 0.754574 32.641 0.000644684 31.3513 0.000644684H22.228L29.2328 12.3166C29.2099 12.3273 29.1868 12.338 29.1638 12.3487C28.7232 12.5542 28.7412 13.2093 29.1923 13.3888L35.241 15.796C35.5213 15.9076 35.8358 15.7625 35.9434 15.4721L38.2751 9.17953C38.4475 8.71406 37.9948 8.26491 37.5549 8.45922V8.45922Z" fill="#34CB79"/>
<path d="M38.2754 9.17899L35.943 15.4715C35.8358 15.7627 35.5209 15.9079 35.2409 15.7958L33.4107 15.0671L35.5924 9.17899C35.7165 8.84506 35.5184 8.51988 35.2341 8.43458C34.9635 8.35326 34.7324 8.16954 34.6059 7.90858L31.7167 1.94875C31.1382 0.754706 29.959 0 28.6687 0H31.3516C32.641 0 33.8202 0.754706 34.3996 1.94875L37.5549 8.45945C37.9953 8.26524 38.4473 8.71361 38.2754 9.17899Z" fill="#2FB86E"/>
<path d="M31.4594 33.5593C31.3744 33.1978 30.9244 33.043 30.6498 33.3275L25.9222 38.2268C25.7336 38.4223 25.7336 38.7391 25.9222 38.9345L30.668 43.8526C30.9408 44.1352 31.3862 43.9844 31.4758 43.6291H38.4548C39.7397 43.6291 40.9156 42.8809 41.4969 41.6934L45.4791 33.5592H31.4594V33.5593Z" fill="#29A361"/>
<path d="M37.3508 33.5594L39.6137 37.1079C40.1253 37.9101 40.1819 38.9353 39.762 39.7928L38.8313 41.6935C38.2509 42.8806 37.0745 43.6293 35.79 43.6293H38.4547C39.7392 43.6293 40.9155 42.8806 41.497 41.6935L45.4789 33.5595H37.3508V33.5594Z" fill="#248F55"/>
<path d="M21.9354 42.6939V34.0356C21.9354 33.3849 21.4263 32.8572 20.7983 32.8572H2.06787L6.88812 42.0281C7.48559 43.1649 8.63468 43.8723 9.88372 43.8723H20.7983C21.4262 43.8723 21.9354 43.3448 21.9354 42.6939Z" fill="#29A361"/>
<path d="M10.0115 32.858L5.85181 40.0573L2.06787 32.858H10.0115Z" fill="#248F55"/>
<path d="M21.9352 34.0358V42.6944C21.9352 43.345 21.4262 43.8724 20.7985 43.8724H17.8152C18.4429 43.8724 18.9519 43.345 18.9519 42.6944V34.0358C18.9519 33.3852 18.4429 32.8578 17.8152 32.8578H20.7985C21.4262 32.8577 21.9352 33.3852 21.9352 34.0358Z" fill="#248F55"/>
<path d="M12.7847 25.2066L11.9436 18.6467C11.902 18.3226 11.6148 18.0949 11.3021 18.1379L4.94784 19.0129C4.46934 19.0788 4.29102 19.682 4.61877 20.0176L0.608522 26.0077C-0.126759 27.106 -0.201384 28.54 0.415585 29.7138L4.77955 38.0167L11.8654 25.7507C11.8679 25.7526 11.8703 25.7546 11.8729 25.7566C12.2773 26.0747 12.8515 25.7282 12.7847 25.2066Z" fill="#34CB79"/>
<path d="M11.8725 25.7566C11.8705 25.7545 11.8677 25.7526 11.8657 25.7506L4.77961 38.0163L3.32227 35.2438L9.08977 25.2586L9.2497 24.9816C9.33717 24.8302 9.50808 24.7648 9.67523 24.7984C9.67608 24.7986 9.67692 24.7987 9.67777 24.7989C10.0334 24.8646 10.3981 24.5576 10.3435 24.1362L9.60464 18.3712L11.3015 18.138C11.6145 18.095 11.9023 18.3232 11.9438 18.6464L12.785 25.2072C12.8518 25.7285 12.2771 26.0748 11.8725 25.7566V25.7566Z" fill="#2FB86E"/>
<path d="M47.3962 25.5569L41.9106 17.3197C41.5741 16.8144 40.9195 16.6615 40.4064 16.9684L33.2576 21.2435C32.6903 21.5828 32.5162 22.3475 32.8774 22.9139L42.9551 38.7151L47.6308 29.1643C48.1967 28.0083 48.1067 26.6239 47.3962 25.5569V25.5569Z" fill="#34CB79"/>
<path d="M47.6309 29.1645L42.9546 38.7148L41.3861 36.2546L44.8572 29.1644C45.4232 28.0084 45.3334 26.6242 44.6226 25.5572L39.3311 17.6123L40.4069 16.9687C40.9197 16.6614 41.5746 16.8145 41.9107 17.32L47.3964 25.5573C48.1071 26.6243 48.1969 28.0085 47.6309 29.1645V29.1645Z" fill="#2FB86E"/>
</svg>
