<svg width="300" height="44" viewBox="0 0 300 44" fill="none" xmlns="http://www.w3.org/2000/svg">
<path d="M79.188 10.764C82.932 10.764 85.8 11.436 87.792 12.78C89.784 14.1 90.78 16.164 90.78 18.972C90.78 20.724 90.372 22.152 89.556 23.256C88.764 24.336 87.612 25.188 86.1 25.812C86.604 26.436 87.132 27.156 87.684 27.972C88.236 28.764 88.776 29.604 89.304 30.492C89.856 31.356 90.384 32.268 90.888 33.228C91.392 34.164 91.86 35.088 92.292 36H85.992C85.536 35.184 85.068 34.356 84.588 33.516C84.132 32.676 83.652 31.86 83.148 31.068C82.668 30.276 82.188 29.532 81.708 28.836C81.228 28.116 80.748 27.468 80.268 26.892H77.496V36H71.88V11.412C73.104 11.172 74.364 11.004 75.66 10.908C76.98 10.812 78.156 10.764 79.188 10.764ZM79.512 15.552C79.104 15.552 78.732 15.564 78.396 15.588C78.084 15.612 77.784 15.636 77.496 15.66V22.428H79.08C81.192 22.428 82.704 22.164 83.616 21.636C84.528 21.108 84.984 20.208 84.984 18.936C84.984 17.712 84.516 16.848 83.58 16.344C82.668 15.816 81.312 15.552 79.512 15.552ZM93.7177 26.676C93.7177 24.996 93.9697 23.532 94.4737 22.284C95.0017 21.012 95.6857 19.956 96.5257 19.116C97.3657 18.276 98.3257 17.64 99.4057 17.208C100.51 16.776 101.638 16.56 102.79 16.56C105.478 16.56 107.602 17.388 109.162 19.044C110.722 20.676 111.502 23.088 111.502 26.28C111.502 26.592 111.49 26.94 111.466 27.324C111.442 27.684 111.418 28.008 111.394 28.296H99.2257C99.3457 29.4 99.8617 30.276 100.774 30.924C101.686 31.572 102.91 31.896 104.446 31.896C105.43 31.896 106.39 31.812 107.326 31.644C108.286 31.452 109.066 31.224 109.666 30.96L110.386 35.316C110.098 35.46 109.714 35.604 109.234 35.748C108.754 35.892 108.214 36.012 107.614 36.108C107.038 36.228 106.414 36.324 105.742 36.396C105.07 36.468 104.398 36.504 103.726 36.504C102.022 36.504 100.534 36.252 99.2617 35.748C98.0137 35.244 96.9697 34.56 96.1297 33.696C95.3137 32.808 94.7017 31.764 94.2937 30.564C93.9097 29.364 93.7177 28.068 93.7177 26.676ZM106.318 24.624C106.294 24.168 106.21 23.724 106.066 23.292C105.946 22.86 105.742 22.476 105.454 22.14C105.19 21.804 104.842 21.528 104.41 21.312C104.002 21.096 103.486 20.988 102.862 20.988C102.262 20.988 101.746 21.096 101.314 21.312C100.882 21.504 100.522 21.768 100.234 22.104C99.9457 22.44 99.7177 22.836 99.5497 23.292C99.4057 23.724 99.2977 24.168 99.2257 24.624H106.318ZM114.741 26.532C114.741 25.164 114.957 23.88 115.389 22.68C115.845 21.456 116.493 20.4 117.333 19.512C118.173 18.6 119.193 17.88 120.393 17.352C121.593 16.824 122.961 16.56 124.497 16.56C125.505 16.56 126.429 16.656 127.269 16.848C128.109 17.016 128.925 17.268 129.717 17.604L128.601 21.888C128.097 21.696 127.545 21.528 126.945 21.384C126.345 21.24 125.673 21.168 124.929 21.168C123.345 21.168 122.157 21.66 121.365 22.644C120.597 23.628 120.213 24.924 120.213 26.532C120.213 28.236 120.573 29.556 121.293 30.492C122.037 31.428 123.321 31.896 125.145 31.896C125.793 31.896 126.489 31.836 127.233 31.716C127.977 31.596 128.661 31.404 129.285 31.14L130.041 35.532C129.417 35.796 128.637 36.024 127.701 36.216C126.765 36.408 125.733 36.504 124.605 36.504C122.877 36.504 121.389 36.252 120.141 35.748C118.893 35.22 117.861 34.512 117.045 33.624C116.253 32.736 115.665 31.692 115.281 30.492C114.921 29.268 114.741 27.948 114.741 26.532ZM150.734 17.064C149.654 20.712 148.526 24.132 147.35 27.324C146.174 30.516 144.89 33.612 143.498 36.612C142.994 37.692 142.49 38.604 141.986 39.348C141.482 40.116 140.93 40.74 140.33 41.22C139.73 41.724 139.046 42.084 138.278 42.3C137.534 42.54 136.658 42.66 135.65 42.66C134.81 42.66 134.03 42.576 133.31 42.408C132.614 42.264 132.038 42.096 131.582 41.904L132.518 37.62C133.07 37.812 133.562 37.944 133.994 38.016C134.426 38.088 134.882 38.124 135.362 38.124C136.322 38.124 137.054 37.86 137.558 37.332C138.086 36.828 138.53 36.12 138.89 35.208C137.666 32.808 136.442 30.12 135.218 27.144C133.994 24.144 132.842 20.784 131.762 17.064H137.45C137.69 18 137.966 19.02 138.278 20.124C138.614 21.204 138.962 22.308 139.322 23.436C139.682 24.54 140.042 25.62 140.402 26.676C140.786 27.732 141.146 28.692 141.482 29.556C141.794 28.692 142.118 27.732 142.454 26.676C142.79 25.62 143.114 24.54 143.426 23.436C143.762 22.308 144.074 21.204 144.362 20.124C144.674 19.02 144.95 18 145.19 17.064H150.734ZM152.218 26.532C152.218 25.164 152.434 23.88 152.866 22.68C153.322 21.456 153.97 20.4 154.81 19.512C155.65 18.6 156.67 17.88 157.87 17.352C159.07 16.824 160.438 16.56 161.974 16.56C162.982 16.56 163.906 16.656 164.746 16.848C165.586 17.016 166.402 17.268 167.194 17.604L166.078 21.888C165.574 21.696 165.022 21.528 164.422 21.384C163.822 21.24 163.15 21.168 162.406 21.168C160.822 21.168 159.634 21.66 158.842 22.644C158.074 23.628 157.69 24.924 157.69 26.532C157.69 28.236 158.05 29.556 158.77 30.492C159.514 31.428 160.798 31.896 162.622 31.896C163.27 31.896 163.966 31.836 164.71 31.716C165.454 31.596 166.138 31.404 166.762 31.14L167.518 35.532C166.894 35.796 166.114 36.024 165.178 36.216C164.242 36.408 163.21 36.504 162.082 36.504C160.354 36.504 158.866 36.252 157.618 35.748C156.37 35.22 155.338 34.512 154.522 33.624C153.73 32.736 153.142 31.692 152.758 30.492C152.398 29.268 152.218 27.948 152.218 26.532ZM187.916 26.496C187.916 27.984 187.7 29.352 187.268 30.6C186.836 31.824 186.212 32.88 185.396 33.768C184.58 34.632 183.596 35.304 182.444 35.784C181.316 36.264 180.044 36.504 178.628 36.504C177.236 36.504 175.964 36.264 174.812 35.784C173.684 35.304 172.712 34.632 171.896 33.768C171.08 32.88 170.444 31.824 169.988 30.6C169.532 29.352 169.304 27.984 169.304 26.496C169.304 25.008 169.532 23.652 169.988 22.428C170.468 21.204 171.116 20.16 171.932 19.296C172.772 18.432 173.756 17.76 174.884 17.28C176.036 16.8 177.284 16.56 178.628 16.56C179.996 16.56 181.244 16.8 182.372 17.28C183.524 17.76 184.508 18.432 185.324 19.296C186.14 20.16 186.776 21.204 187.232 22.428C187.688 23.652 187.916 25.008 187.916 26.496ZM182.444 26.496C182.444 24.84 182.108 23.544 181.436 22.608C180.788 21.648 179.852 21.168 178.628 21.168C177.404 21.168 176.456 21.648 175.784 22.608C175.112 23.544 174.776 24.84 174.776 26.496C174.776 28.152 175.112 29.472 175.784 30.456C176.456 31.416 177.404 31.896 178.628 31.896C179.852 31.896 180.788 31.416 181.436 30.456C182.108 29.472 182.444 28.152 182.444 26.496ZM199.631 36.36C198.071 36.336 196.799 36.168 195.815 35.856C194.855 35.544 194.087 35.112 193.511 34.56C192.959 33.984 192.575 33.3 192.359 32.508C192.167 31.692 192.071 30.78 192.071 29.772V8.928L197.435 8.064V28.692C197.435 29.172 197.471 29.604 197.543 29.988C197.615 30.372 197.747 30.696 197.939 30.96C198.155 31.224 198.455 31.44 198.839 31.608C199.223 31.776 199.739 31.884 200.387 31.932L199.631 36.36ZM211.021 36.36C209.461 36.336 208.189 36.168 207.205 35.856C206.245 35.544 205.477 35.112 204.901 34.56C204.349 33.984 203.965 33.3 203.749 32.508C203.557 31.692 203.461 30.78 203.461 29.772V8.928L208.825 8.064V28.692C208.825 29.172 208.861 29.604 208.933 29.988C209.005 30.372 209.137 30.696 209.329 30.96C209.545 31.224 209.845 31.44 210.229 31.608C210.613 31.776 211.129 31.884 211.777 31.932L211.021 36.36ZM213.952 26.676C213.952 24.996 214.204 23.532 214.708 22.284C215.236 21.012 215.92 19.956 216.76 19.116C217.6 18.276 218.56 17.64 219.64 17.208C220.744 16.776 221.872 16.56 223.024 16.56C225.712 16.56 227.836 17.388 229.396 19.044C230.956 20.676 231.736 23.088 231.736 26.28C231.736 26.592 231.724 26.94 231.7 27.324C231.676 27.684 231.652 28.008 231.628 28.296H219.46C219.58 29.4 220.096 30.276 221.008 30.924C221.92 31.572 223.144 31.896 224.68 31.896C225.664 31.896 226.624 31.812 227.56 31.644C228.52 31.452 229.3 31.224 229.9 30.96L230.62 35.316C230.332 35.46 229.948 35.604 229.468 35.748C228.988 35.892 228.448 36.012 227.848 36.108C227.272 36.228 226.648 36.324 225.976 36.396C225.304 36.468 224.632 36.504 223.96 36.504C222.256 36.504 220.768 36.252 219.496 35.748C218.248 35.244 217.204 34.56 216.364 33.696C215.548 32.808 214.936 31.764 214.528 30.564C214.144 29.364 213.952 28.068 213.952 26.676ZM226.552 24.624C226.528 24.168 226.444 23.724 226.3 23.292C226.18 22.86 225.976 22.476 225.688 22.14C225.424 21.804 225.076 21.528 224.644 21.312C224.236 21.096 223.72 20.988 223.096 20.988C222.496 20.988 221.98 21.096 221.548 21.312C221.116 21.504 220.756 21.768 220.468 22.104C220.18 22.44 219.952 22.836 219.784 23.292C219.64 23.724 219.532 24.168 219.46 24.624H226.552ZM235.695 12.348L241.059 11.484V17.064H247.503V21.528H241.059V28.188C241.059 29.316 241.251 30.216 241.635 30.888C242.043 31.56 242.847 31.896 244.047 31.896C244.623 31.896 245.211 31.848 245.811 31.752C246.435 31.632 246.999 31.476 247.503 31.284L248.259 35.46C247.611 35.724 246.891 35.952 246.099 36.144C245.307 36.336 244.335 36.432 243.183 36.432C241.719 36.432 240.507 36.24 239.547 35.856C238.587 35.448 237.819 34.896 237.243 34.2C236.667 33.48 236.259 32.616 236.019 31.608C235.803 30.6 235.695 29.484 235.695 28.26V12.348ZM257.236 36H251.872V17.064H257.236V36ZM257.74 11.592C257.74 12.576 257.416 13.356 256.768 13.932C256.144 14.484 255.4 14.76 254.536 14.76C253.672 14.76 252.916 14.484 252.268 13.932C251.644 13.356 251.332 12.576 251.332 11.592C251.332 10.608 251.644 9.84 252.268 9.288C252.916 8.712 253.672 8.424 254.536 8.424C255.4 8.424 256.144 8.712 256.768 9.288C257.416 9.84 257.74 10.608 257.74 11.592ZM262.278 17.712C263.19 17.448 264.366 17.208 265.806 16.992C267.246 16.752 268.758 16.632 270.342 16.632C271.95 16.632 273.282 16.848 274.338 17.28C275.418 17.688 276.27 18.276 276.894 19.044C277.518 19.812 277.962 20.724 278.226 21.78C278.49 22.836 278.622 24.012 278.622 25.308V36H273.258V25.956C273.258 24.228 273.03 23.004 272.574 22.284C272.118 21.564 271.266 21.204 270.018 21.204C269.634 21.204 269.226 21.228 268.794 21.276C268.362 21.3 267.978 21.336 267.642 21.384V36H262.278V17.712ZM288.049 25.92C288.049 28.92 289.261 30.42 291.685 30.42C292.237 30.42 292.753 30.348 293.233 30.204C293.713 30.06 294.121 29.892 294.457 29.7V21.132C294.193 21.084 293.881 21.048 293.521 21.024C293.161 20.976 292.741 20.952 292.261 20.952C290.845 20.952 289.789 21.42 289.093 22.356C288.397 23.292 288.049 24.48 288.049 25.92ZM299.821 33.624C299.821 36.72 299.029 39.012 297.445 40.5C295.885 42.012 293.461 42.768 290.173 42.768C289.021 42.768 287.869 42.66 286.717 42.444C285.565 42.252 284.497 41.988 283.513 41.652L284.449 37.152C285.289 37.488 286.165 37.752 287.077 37.944C288.013 38.136 289.069 38.232 290.245 38.232C291.781 38.232 292.861 37.896 293.485 37.224C294.133 36.552 294.457 35.688 294.457 34.632V33.948C293.881 34.212 293.281 34.416 292.657 34.56C292.057 34.68 291.397 34.74 290.677 34.74C288.061 34.74 286.057 33.972 284.665 32.436C283.273 30.876 282.577 28.704 282.577 25.92C282.577 24.528 282.793 23.268 283.225 22.14C283.657 20.988 284.281 20.004 285.097 19.188C285.937 18.372 286.957 17.748 288.157 17.316C289.357 16.86 290.713 16.632 292.225 16.632C292.873 16.632 293.533 16.668 294.205 16.74C294.901 16.788 295.585 16.86 296.257 16.956C296.929 17.052 297.565 17.172 298.165 17.316C298.789 17.436 299.341 17.568 299.821 17.712V33.624Z" fill="#322153"/>
<path d="M14.642 1.84962L10.0671 10.5861C9.77168 11.1501 9.96621 11.8554 10.5046 12.1725L17.6681 16.3922C18.214 16.7137 18.9079 16.516 19.2183 15.9504L27.9745 0.000644684H17.6401C16.3892 0.000644684 15.2386 0.710174 14.642 1.84962V1.84962Z" fill="#29A361"/>
<path d="M27.9743 0L19.2184 15.95C18.9074 16.5154 18.214 16.7136 17.6683 16.3923L15.7986 15.2913C16.2544 15.3674 16.7287 15.1503 16.9701 14.7099L25.047 0H27.9743Z" fill="#248F55"/>
<path d="M37.5549 8.45922L34.3995 1.94901C33.8206 0.754574 32.641 0.000644684 31.3513 0.000644684H22.228L29.2328 12.3166C29.2099 12.3273 29.1868 12.338 29.1638 12.3487C28.7232 12.5542 28.7412 13.2093 29.1923 13.3888L35.241 15.796C35.5213 15.9076 35.8358 15.7625 35.9434 15.4721L38.2751 9.17953C38.4475 8.71406 37.9948 8.26491 37.5549 8.45922V8.45922Z" fill="#34CB79"/>
<path d="M38.2754 9.17899L35.943 15.4715C35.8358 15.7627 35.5209 15.9079 35.2409 15.7958L33.4107 15.0671L35.5924 9.17899C35.7165 8.84506 35.5184 8.51988 35.2341 8.43458C34.9635 8.35326 34.7324 8.16954 34.6059 7.90858L31.7167 1.94875C31.1382 0.754706 29.959 0 28.6687 0H31.3516C32.641 0 33.8202 0.754706 34.3996 1.94875L37.5549 8.45945C37.9953 8.26524 38.4473 8.71361 38.2754 9.17899Z" fill="#2FB86E"/>
<path d="M31.4594 33.5593C31.3744 33.1978 30.9244 33.043 30.6498 33.3275L25.9222 38.2268C25.7336 38.4223 25.7336 38.7391 25.9222 38.9345L30.668 43.8526C30.9408 44.1352 31.3862 43.9844 31.4758 43.6291H38.4548C39.7397 43.6291 40.9156 42.8809 41.4969 41.6934L45.4791 33.5592H31.4594V33.5593Z" fill="#29A361"/>
<path d="M37.3508 33.5594L39.6137 37.1079C40.1253 37.9101 40.1819 38.9353 39.762 39.7928L38.8313 41.6935C38.2509 42.8806 37.0745 43.6293 35.79 43.6293H38.4547C39.7392 43.6293 40.9155 42.8806 41.497 41.6935L45.4789 33.5595H37.3508V33.5594Z" fill="#248F55"/>
<path d="M21.9354 42.6939V34.0356C21.9354 33.3849 21.4263 32.8572 20.7983 32.8572H2.06787L6.88812 42.0281C7.48559 43.1649 8.63468 43.8723 9.88372 43.8723H20.7983C21.4262 43.8723 21.9354 43.3448 21.9354 42.6939Z" fill="#29A361"/>
<path d="M10.0115 32.858L5.85181 40.0573L2.06787 32.858H10.0115Z" fill="#248F55"/>
<path d="M21.9352 34.0358V42.6944C21.9352 43.345 21.4262 43.8724 20.7985 43.8724H17.8152C18.4429 43.8724 18.9519 43.345 18.9519 42.6944V34.0358C18.9519 33.3852 18.4429 32.8578 17.8152 32.8578H20.7985C21.4262 32.8577 21.9352 33.3852 21.9352 34.0358Z" fill="#248F55"/>
<path d="M12.7847 25.2066L11.9436 18.6467C11.902 18.3226 11.6148 18.0949 11.3021 18.1379L4.94784 19.0129C4.46934 19.0788 4.29102 19.682 4.61877 20.0176L0.608522 26.0077C-0.126759 27.106 -0.201384 28.54 0.415585 29.7138L4.77955 38.0167L11.8654 25.7507C11.8679 25.7526 11.8703 25.7546 11.8729 25.7566C12.2773 26.0747 12.8515 25.7282 12.7847 25.2066Z" fill="#34CB79"/>
<path d="M11.8725 25.7566C11.8705 25.7545 11.8677 25.7526 11.8657 25.7506L4.77961 38.0163L3.32227 35.2438L9.08977 25.2586L9.2497 24.9816C9.33717 24.8302 9.50808 24.7648 9.67523 24.7984C9.67608 24.7986 9.67692 24.7987 9.67777 24.7989C10.0334 24.8646 10.3981 24.5576 10.3435 24.1362L9.60464 18.3712L11.3015 18.138C11.6145 18.095 11.9023 18.3232 11.9438 18.6464L12.785 25.2072C12.8518 25.7285 12.2771 26.0748 11.8725 25.7566V25.7566Z" fill="#2FB86E"/>
<path d="M47.3962 25.5569L41.9106 17.3197C41.5741 16.8144 40.9195 16.6615 40.4064 16.9684L33.2576 21.2435C32.6903 21.5828 32.5162 22.3475 32.8774 22.9139L42.9551 38.7151L47.6308 29.1643C48.1967 28.0083 48.1067 26.6239 47.3962 25.5569V25.5569Z" fill="#34CB79"/>
<path d="M47.6309 29.1645L42.9546 38.7148L41.3861 36.2546L44.8572 29.1644C45.4232 28.0084 45.3334 26.6242 44.6226 25.5572L39.3311 17.6123L40.4069 16.9687C40.9197 16.6614 41.5746 16.8145 41.9107 17.32L47.3964 25.5573C48.1071 26.6243 48.1969 28.0085 47.6309 29.1645V29.1645Z" fill="#2FB86E"/>
</svg>
